<svg xmlns="http://www.w3.org/2000/svg" viewBox="0 0 500 600">
  <defs>
    <style>@import url('https://fonts.googleapis.com/css2?family=Nunito:wght@400;700;900&amp;display=swap');</style>
  </defs>
  <!-- icon centred top -->
  <g transform="translate(50, 0) scale(1)">
    <circle cx="200" cy="190" r="155" fill="#FBF4FF"/>
    <path d="M175 310 C183 294 196 290 210 294 C220 297 222 306 215 313 C206 320 190 318 175 310Z" fill="#D4B8EC" stroke="#6B2F93" stroke-width="2.5" stroke-linejoin="round"/>
    <path d="M170 314 C163 300 172 289 185 291 C194 293 196 303 189 312 C182 320 172 320 170 314Z" fill="#C4A0D8" stroke="#6B2F93" stroke-width="2.5" stroke-linejoin="round"/>
    <path d="M185 264 C174 273 168 291 172 310 C182 320 212 320 218 310 C223 291 217 273 206 264Z" fill="#6B2F93"/>
    <path d="M174 286 C167 291 163 300 167 307" fill="none" stroke="#E8C99A" stroke-width="10" stroke-linecap="round"/>
    <path d="M216 286 C223 291 227 300 223 307" fill="none" stroke="#E8C99A" stroke-width="10" stroke-linecap="round"/>
    <circle cx="165" cy="309" r="9" fill="#E8C99A" stroke="#6B2F93" stroke-width="2"/>
    <circle cx="225" cy="309" r="9" fill="#E8C99A" stroke="#6B2F93" stroke-width="2"/>
    <circle cx="196" cy="238" r="36" fill="#E8C99A" stroke="#6B2F93" stroke-width="3"/>
    <path d="M164 230 C167 208 184 200 202 204 C216 208 224 222 222 234 C215 220 204 214 194 214 C181 214 169 223 164 230Z" fill="#2C1810"/>
    <ellipse cx="184" cy="240" rx="7" ry="8" fill="white" stroke="#2C1810" stroke-width="2"/>
    <ellipse cx="208" cy="240" rx="7" ry="8" fill="white" stroke="#2C1810" stroke-width="2"/>
    <circle cx="185" cy="241" r="4.5" fill="#2C1810"/>
    <circle cx="209" cy="241" r="4.5" fill="#2C1810"/>
    <circle cx="186" cy="239" r="2" fill="white"/>
    <circle cx="210" cy="239" r="2" fill="white"/>
    <path d="M177 229 C181 225 189 225 193 229" fill="none" stroke="#2C1810" stroke-width="2.5" stroke-linecap="round"/>
    <path d="M203 229 C207 225 215 225 219 229" fill="none" stroke="#2C1810" stroke-width="2.5" stroke-linecap="round"/>
    <path d="M186 254 C190 260 202 260 206 254" fill="none" stroke="#2C1810" stroke-width="2.5" stroke-linecap="round"/>
    <ellipse cx="196" cy="256" rx="6" ry="4" fill="#CC7755" opacity="0.5"/>
    <path d="M234 330 L234 278 C234 264 248 255 264 257 L280 259 C294 262 300 275 296 288 L292 330Z" fill="#4A2E6A"/>
    <circle cx="264" cy="228" r="32" fill="#C8956A" stroke="#6B2F93" stroke-width="2.5"/>
    <path d="M236 220 C240 200 256 192 274 197 C288 201 296 215 293 227 C286 213 275 206 264 208 C251 208 239 218 236 220Z" fill="#1A0C08"/>
    <path d="M250 240 C257 247 272 247 279 240" fill="none" stroke="#1A0C08" stroke-width="2.5" stroke-linecap="round"/>
    <path d="M224 267 C219 260 212 260 208 265 C204 270 205 277 212 279 C219 281 225 276 224 267Z" fill="#C8956A" stroke="#6B2F93" stroke-width="2"/>
    <path d="M224 267 C229 258 238 256 242 263" fill="none" stroke="#C8956A" stroke-width="11" stroke-linecap="round"/>
    <path d="M78 120 C66 120 56 110 56 98 C56 86 66 76 78 76 C72 82 68 90 68 98 C68 106 72 114 78 120Z" fill="#F1C94A" stroke="#D4A017" stroke-width="2"/>
    <path d="M88 68 L90 74 L96 74 L91 78 L93 84 L88 80 L83 84 L85 78 L80 74 L86 74Z" fill="#F1C94A" stroke="#D4A017" stroke-width="1"/>
    <text font-family="Nunito,Arial" font-size="18" font-weight="900" fill="#9B6BB5" x="56" y="154" opacity="0.6">z</text>
    <text font-family="Nunito,Arial" font-size="14" font-weight="900" fill="#9B6BB5" x="72" y="142" opacity="0.45">z</text>
    <g transform="translate(148,96)"><ellipse cx="0" cy="0" rx="18" ry="13" fill="#9B6BB5" stroke="#6B2F93" stroke-width="2"/><circle cx="14" cy="-9" r="10" fill="#9B6BB5" stroke="#6B2F93" stroke-width="2"/><path d="M22 -13 C26 -20 32 -17 29 -10 C27 -5 22 -5 22 -10 C22 -15 24 -18 22 -13Z" fill="#F1753B"/></g>
    <circle cx="258" cy="80" r="16" fill="#4A8FCC" stroke="#2C6A9A" stroke-width="2"/>
    <ellipse cx="258" cy="80" rx="28" ry="9" fill="none" stroke="#7AB8E8" stroke-width="2.5" opacity="0.7" transform="rotate(-25 258 80)"/>
    <g transform="translate(320,96)"><path d="M-20 11 L-20 -5 L-10 5 L0 -13 L10 5 L20 -5 L20 11Z" fill="#F1C94A" stroke="#D4A017" stroke-width="2" stroke-linejoin="round"/><rect x="-20" y="9" width="40" height="7" rx="3" fill="#F1C94A" stroke="#D4A017" stroke-width="2"/></g>
    <g transform="translate(340,180)"><path d="M-24 -17 C-24 -27 -12 -32 0 -32 C12 -32 24 -27 24 -17 C24 -5 17 10 0 15 C-17 10 -24 -5 -24 -17Z" fill="#2C1040" stroke="#6B2F93" stroke-width="2.5"/><path d="M-17 -20 C-12 -25 -5 -22 -3 -17" fill="none" stroke="#F1753B" stroke-width="3" stroke-linecap="round"/><path d="M3 -17 C5 -22 12 -25 17 -20" fill="none" stroke="#F1753B" stroke-width="3" stroke-linecap="round"/><ellipse cx="-10" cy="-13" rx="6" ry="5" fill="#F1753B" opacity="0.85"/><ellipse cx="10" cy="-13" rx="6" ry="5" fill="#F1753B" opacity="0.85"/><path d="M-12 0 C-7 8 7 8 12 0" fill="none" stroke="white" stroke-width="2.5" stroke-linecap="round"/></g>
    <g transform="translate(120,302)"><ellipse cx="0" cy="0" rx="17" ry="12" fill="#D4956A" stroke="#8B5A2B" stroke-width="2"/><circle cx="15" cy="-8" r="11" fill="#D4956A" stroke="#8B5A2B" stroke-width="2"/><path d="M10 -16 C5 -24 2 -13 7 -8" fill="#B87040" stroke="#8B5A2B" stroke-width="1.5"/><circle cx="19" cy="-11" r="2.5" fill="#2C1810"/><ellipse cx="24" cy="-6" rx="3" ry="2" fill="#2C1810"/><path d="M-17 -5 C-24 -12 -27 -5 -22 0 C-25 5 -23 12 -18 10" fill="none" stroke="#D4956A" stroke-width="4" stroke-linecap="round"/></g>
    <rect x="82" y="222" width="74" height="28" rx="14" fill="#FFF0E8" stroke="#F1753B" stroke-width="2.5"/>
    <text x="119" y="241" text-anchor="middle" font-family="Nunito,Arial" font-size="13" font-weight="800" fill="#F1753B">their name</text>
  </g>
  <!-- wordmark below -->
  <text x="250" y="418" text-anchor="middle" font-family="'Nunito','Arial Rounded MT Bold',Arial,sans-serif" font-size="64" font-weight="900" fill="#6B2F93" letter-spacing="-1">Hear Their</text>
  <text x="250" y="482" text-anchor="middle" font-family="'Nunito','Arial Rounded MT Bold',Arial,sans-serif" font-size="64" font-weight="900" fill="#F1753B" letter-spacing="-1">Name.</text>
  <text x="250" y="520" text-anchor="middle" font-family="'Nunito',Arial,sans-serif" font-size="15" font-weight="400" fill="#9B6BB5" letter-spacing="2">A story made just for them.</text>
  <text x="250" y="548" text-anchor="middle" font-family="'Nunito',Arial,sans-serif" font-size="13" font-weight="400" fill="#C4A0D8" letter-spacing="1">heartheirname.com</text>
</svg>
